<mxfile host="app.diagrams.net" modified="2020-09-11T13:12:52.035Z" agent="5.0 (Macintosh; Intel Mac OS X 10_15_6) AppleWebKit/605.1.15 (KHTML, like Gecko) Version/13.1.2 Safari/605.1.15" etag="ZKuf-fJo2bvnxjxZJahk" version="13.6.9" type="github" pages="3">
  <diagram id="C5RBs43oDa-KdzZeNtuy" name="Save Flow">
    <mxGraphModel dx="1554" dy="939" grid="1" gridSize="10" guides="1" tooltips="1" connect="1" arrows="1" fold="1" page="1" pageScale="1" pageWidth="827" pageHeight="1169" math="0" shadow="0">
      <root>
        <mxCell id="WIyWlLk6GJQsqaUBKTNV-0" />
        <mxCell id="WIyWlLk6GJQsqaUBKTNV-1" parent="WIyWlLk6GJQsqaUBKTNV-0" />
        <mxCell id="WIyWlLk6GJQsqaUBKTNV-2" value="" style="rounded=0;html=1;jettySize=auto;orthogonalLoop=1;fontSize=11;endArrow=block;endFill=0;endSize=8;strokeWidth=1;shadow=0;labelBackgroundColor=none;edgeStyle=orthogonalEdgeStyle;entryX=0.5;entryY=0;entryDx=0;entryDy=0;" parent="WIyWlLk6GJQsqaUBKTNV-1" source="WIyWlLk6GJQsqaUBKTNV-3" target="bOBQ_j2tLt5Iy2slIHau-17" edge="1">
          <mxGeometry relative="1" as="geometry" />
        </mxCell>
        <mxCell id="WIyWlLk6GJQsqaUBKTNV-3" value="Start" style="rounded=1;whiteSpace=wrap;html=1;fontSize=12;glass=0;strokeWidth=1;shadow=0;" parent="WIyWlLk6GJQsqaUBKTNV-1" vertex="1">
          <mxGeometry x="270" y="20" width="120" height="40" as="geometry" />
        </mxCell>
        <mxCell id="bOBQ_j2tLt5Iy2slIHau-28" value="" style="edgeStyle=orthogonalEdgeStyle;rounded=0;orthogonalLoop=1;jettySize=auto;html=1;" parent="WIyWlLk6GJQsqaUBKTNV-1" source="WIyWlLk6GJQsqaUBKTNV-6" target="bOBQ_j2tLt5Iy2slIHau-27" edge="1">
          <mxGeometry relative="1" as="geometry" />
        </mxCell>
        <mxCell id="WIyWlLk6GJQsqaUBKTNV-6" value="사용자 정보 입력" style="rhombus;whiteSpace=wrap;html=1;shadow=0;fontFamily=Helvetica;fontSize=12;align=center;strokeWidth=1;spacing=6;spacingTop=-4;" parent="WIyWlLk6GJQsqaUBKTNV-1" vertex="1">
          <mxGeometry x="270" y="250" width="120" height="96" as="geometry" />
        </mxCell>
        <mxCell id="WIyWlLk6GJQsqaUBKTNV-7" value="건너뛰기" style="rounded=1;whiteSpace=wrap;html=1;fontSize=12;glass=0;strokeWidth=1;shadow=0;" parent="WIyWlLk6GJQsqaUBKTNV-1" vertex="1">
          <mxGeometry x="90" y="142" width="120" height="40" as="geometry" />
        </mxCell>
        <mxCell id="WIyWlLk6GJQsqaUBKTNV-8" value="Yes" style="rounded=0;html=1;jettySize=auto;orthogonalLoop=1;fontSize=11;endArrow=block;endFill=0;endSize=8;strokeWidth=1;shadow=0;labelBackgroundColor=none;edgeStyle=orthogonalEdgeStyle;" parent="WIyWlLk6GJQsqaUBKTNV-1" edge="1">
          <mxGeometry x="-1" y="118" relative="1" as="geometry">
            <mxPoint x="-98" y="-116" as="offset" />
            <mxPoint x="329.5" y="346" as="sourcePoint" />
            <mxPoint x="330" y="390" as="targetPoint" />
            <Array as="points">
              <mxPoint x="330" y="360" />
              <mxPoint x="330" y="360" />
            </Array>
          </mxGeometry>
        </mxCell>
        <mxCell id="bOBQ_j2tLt5Iy2slIHau-4" value="서비스&lt;br&gt;백그라운드 실행" style="rhombus;whiteSpace=wrap;html=1;shadow=0;fontFamily=Helvetica;fontSize=12;align=center;strokeWidth=1;spacing=6;spacingTop=-4;" parent="WIyWlLk6GJQsqaUBKTNV-1" vertex="1">
          <mxGeometry x="270" y="390" width="120" height="96" as="geometry" />
        </mxCell>
        <mxCell id="bOBQ_j2tLt5Iy2slIHau-6" value="" style="shape=link;html=1;" parent="WIyWlLk6GJQsqaUBKTNV-1" edge="1">
          <mxGeometry width="100" relative="1" as="geometry">
            <mxPoint x="560" y="437.5" as="sourcePoint" />
            <mxPoint x="620" y="437.5" as="targetPoint" />
          </mxGeometry>
        </mxCell>
        <mxCell id="bOBQ_j2tLt5Iy2slIHau-30" value="OFF" style="edgeLabel;html=1;align=center;verticalAlign=middle;resizable=0;points=[];" parent="bOBQ_j2tLt5Iy2slIHau-6" vertex="1" connectable="0">
          <mxGeometry x="-0.4667" y="3" relative="1" as="geometry">
            <mxPoint x="8" y="0.5" as="offset" />
          </mxGeometry>
        </mxCell>
        <mxCell id="bOBQ_j2tLt5Iy2slIHau-7" value="핀 화면에서 제거" style="rounded=1;whiteSpace=wrap;html=1;fontSize=12;glass=0;strokeWidth=1;shadow=0;" parent="WIyWlLk6GJQsqaUBKTNV-1" vertex="1">
          <mxGeometry x="620" y="418" width="120" height="40" as="geometry" />
        </mxCell>
        <mxCell id="bOBQ_j2tLt5Iy2slIHau-12" value="" style="endArrow=classic;html=1;exitX=1;exitY=0.5;exitDx=0;exitDy=0;" parent="WIyWlLk6GJQsqaUBKTNV-1" source="bOBQ_j2tLt5Iy2slIHau-4" edge="1">
          <mxGeometry relative="1" as="geometry">
            <mxPoint x="329.5" y="486" as="sourcePoint" />
            <mxPoint x="440" y="438" as="targetPoint" />
          </mxGeometry>
        </mxCell>
        <mxCell id="bOBQ_j2tLt5Iy2slIHau-13" value="ON" style="edgeLabel;resizable=0;html=1;align=center;verticalAlign=middle;" parent="bOBQ_j2tLt5Iy2slIHau-12" connectable="0" vertex="1">
          <mxGeometry relative="1" as="geometry">
            <mxPoint x="0.25" y="-8" as="offset" />
          </mxGeometry>
        </mxCell>
        <mxCell id="bOBQ_j2tLt5Iy2slIHau-15" value="" style="rounded=0;html=1;jettySize=auto;orthogonalLoop=1;fontSize=11;endArrow=block;endFill=0;endSize=8;strokeWidth=1;shadow=0;labelBackgroundColor=none;edgeStyle=orthogonalEdgeStyle;entryX=0;entryY=0.5;entryDx=0;entryDy=0;exitX=0.5;exitY=1;exitDx=0;exitDy=0;" parent="WIyWlLk6GJQsqaUBKTNV-1" source="WIyWlLk6GJQsqaUBKTNV-7" target="bOBQ_j2tLt5Iy2slIHau-4" edge="1">
          <mxGeometry y="20" relative="1" as="geometry">
            <mxPoint as="offset" />
            <mxPoint x="149.5" y="188" as="sourcePoint" />
            <mxPoint x="150" y="460" as="targetPoint" />
            <Array as="points">
              <mxPoint x="150" y="438" />
            </Array>
          </mxGeometry>
        </mxCell>
        <mxCell id="bOBQ_j2tLt5Iy2slIHau-16" value="No" style="edgeStyle=orthogonalEdgeStyle;rounded=0;html=1;jettySize=auto;orthogonalLoop=1;fontSize=11;endArrow=block;endFill=0;endSize=8;strokeWidth=1;shadow=0;labelBackgroundColor=none;" parent="WIyWlLk6GJQsqaUBKTNV-1" source="bOBQ_j2tLt5Iy2slIHau-17" target="bOBQ_j2tLt5Iy2slIHau-18" edge="1">
          <mxGeometry y="10" relative="1" as="geometry">
            <mxPoint as="offset" />
          </mxGeometry>
        </mxCell>
        <mxCell id="bOBQ_j2tLt5Iy2slIHau-22" value="" style="edgeStyle=orthogonalEdgeStyle;rounded=0;orthogonalLoop=1;jettySize=auto;html=1;" parent="WIyWlLk6GJQsqaUBKTNV-1" source="bOBQ_j2tLt5Iy2slIHau-17" target="WIyWlLk6GJQsqaUBKTNV-7" edge="1">
          <mxGeometry relative="1" as="geometry" />
        </mxCell>
        <mxCell id="bOBQ_j2tLt5Iy2slIHau-17" value="&lt;br&gt;어플 백그라운드 실행 권한" style="rhombus;whiteSpace=wrap;html=1;shadow=0;fontFamily=Helvetica;fontSize=12;align=center;strokeWidth=1;spacing=6;spacingTop=-4;" parent="WIyWlLk6GJQsqaUBKTNV-1" vertex="1">
          <mxGeometry x="270" y="114" width="120" height="96" as="geometry" />
        </mxCell>
        <mxCell id="bOBQ_j2tLt5Iy2slIHau-18" value="실행 종료" style="rounded=1;whiteSpace=wrap;html=1;fontSize=12;glass=0;strokeWidth=1;shadow=0;" parent="WIyWlLk6GJQsqaUBKTNV-1" vertex="1">
          <mxGeometry x="450" y="142" width="120" height="40" as="geometry" />
        </mxCell>
        <mxCell id="bOBQ_j2tLt5Iy2slIHau-19" value="" style="rounded=0;html=1;jettySize=auto;orthogonalLoop=1;fontSize=11;endArrow=block;endFill=0;endSize=8;strokeWidth=1;shadow=0;labelBackgroundColor=none;edgeStyle=orthogonalEdgeStyle;" parent="WIyWlLk6GJQsqaUBKTNV-1" edge="1">
          <mxGeometry y="20" relative="1" as="geometry">
            <mxPoint as="offset" />
            <mxPoint x="330" y="240" as="sourcePoint" />
            <mxPoint x="330" y="250" as="targetPoint" />
            <Array as="points">
              <mxPoint x="330" y="210" />
              <mxPoint x="330" y="210" />
            </Array>
          </mxGeometry>
        </mxCell>
        <mxCell id="bOBQ_j2tLt5Iy2slIHau-27" value="SNS 계정연동" style="rounded=1;whiteSpace=wrap;html=1;fontSize=12;glass=0;strokeWidth=1;shadow=0;" parent="WIyWlLk6GJQsqaUBKTNV-1" vertex="1">
          <mxGeometry x="450" y="278" width="120" height="40" as="geometry" />
        </mxCell>
        <mxCell id="bOBQ_j2tLt5Iy2slIHau-32" value="" style="edgeStyle=orthogonalEdgeStyle;rounded=0;orthogonalLoop=1;jettySize=auto;html=1;" parent="WIyWlLk6GJQsqaUBKTNV-1" source="bOBQ_j2tLt5Iy2slIHau-29" edge="1">
          <mxGeometry relative="1" as="geometry">
            <mxPoint x="500" y="530" as="targetPoint" />
          </mxGeometry>
        </mxCell>
        <mxCell id="bOBQ_j2tLt5Iy2slIHau-33" value="Click" style="edgeLabel;html=1;align=center;verticalAlign=middle;resizable=0;points=[];" parent="bOBQ_j2tLt5Iy2slIHau-32" vertex="1" connectable="0">
          <mxGeometry x="-0.3636" relative="1" as="geometry">
            <mxPoint as="offset" />
          </mxGeometry>
        </mxCell>
        <mxCell id="bOBQ_j2tLt5Iy2slIHau-29" value="핀 GUI에 출력" style="rhombus;whiteSpace=wrap;html=1;shadow=0;fontFamily=Helvetica;fontSize=12;align=center;strokeWidth=1;spacing=6;spacingTop=-4;" parent="WIyWlLk6GJQsqaUBKTNV-1" vertex="1">
          <mxGeometry x="440" y="390" width="120" height="96" as="geometry" />
        </mxCell>
        <mxCell id="bOBQ_j2tLt5Iy2slIHau-31" value="태그 설정" style="rhombus;whiteSpace=wrap;html=1;shadow=0;fontFamily=Helvetica;fontSize=12;align=center;strokeWidth=1;spacing=6;spacingTop=-4;" parent="WIyWlLk6GJQsqaUBKTNV-1" vertex="1">
          <mxGeometry x="440" y="530" width="120" height="96" as="geometry" />
        </mxCell>
        <mxCell id="bOBQ_j2tLt5Iy2slIHau-36" value="핀 GUI 에 출력" style="rounded=1;whiteSpace=wrap;html=1;fontSize=12;glass=0;strokeWidth=1;shadow=0;" parent="WIyWlLk6GJQsqaUBKTNV-1" vertex="1">
          <mxGeometry x="620" y="558" width="120" height="40" as="geometry" />
        </mxCell>
        <mxCell id="bOBQ_j2tLt5Iy2slIHau-37" value="" style="edgeStyle=orthogonalEdgeStyle;rounded=0;orthogonalLoop=1;jettySize=auto;html=1;" parent="WIyWlLk6GJQsqaUBKTNV-1" edge="1">
          <mxGeometry relative="1" as="geometry">
            <mxPoint x="560" y="577.5" as="sourcePoint" />
            <mxPoint x="620" y="577.5" as="targetPoint" />
          </mxGeometry>
        </mxCell>
        <mxCell id="bOBQ_j2tLt5Iy2slIHau-38" value="No" style="text;html=1;align=center;verticalAlign=middle;resizable=0;points=[];autosize=1;" parent="WIyWlLk6GJQsqaUBKTNV-1" vertex="1">
          <mxGeometry x="578" y="556" width="30" height="20" as="geometry" />
        </mxCell>
        <mxCell id="bOBQ_j2tLt5Iy2slIHau-40" value="" style="edgeStyle=orthogonalEdgeStyle;rounded=0;orthogonalLoop=1;jettySize=auto;html=1;exitX=0;exitY=0.5;exitDx=0;exitDy=0;" parent="WIyWlLk6GJQsqaUBKTNV-1" source="bOBQ_j2tLt5Iy2slIHau-31" edge="1">
          <mxGeometry relative="1" as="geometry">
            <mxPoint x="499.5" y="626" as="sourcePoint" />
            <mxPoint x="390" y="578" as="targetPoint" />
          </mxGeometry>
        </mxCell>
        <mxCell id="bOBQ_j2tLt5Iy2slIHau-42" value="Yes" style="text;html=1;align=center;verticalAlign=middle;resizable=0;points=[];autosize=1;" parent="WIyWlLk6GJQsqaUBKTNV-1" vertex="1">
          <mxGeometry x="390" y="556" width="40" height="20" as="geometry" />
        </mxCell>
        <mxCell id="bOBQ_j2tLt5Iy2slIHau-44" value="콘텐츠(미디어) 저장" style="rhombus;whiteSpace=wrap;html=1;shadow=0;fontFamily=Helvetica;fontSize=12;align=center;strokeWidth=1;spacing=6;spacingTop=-4;" parent="WIyWlLk6GJQsqaUBKTNV-1" vertex="1">
          <mxGeometry x="270" y="530" width="120" height="96" as="geometry" />
        </mxCell>
        <mxCell id="bOBQ_j2tLt5Iy2slIHau-45" value="" style="edgeStyle=orthogonalEdgeStyle;rounded=0;orthogonalLoop=1;jettySize=auto;html=1;" parent="WIyWlLk6GJQsqaUBKTNV-1" edge="1">
          <mxGeometry relative="1" as="geometry">
            <mxPoint x="329.5" y="626" as="sourcePoint" />
            <mxPoint x="329.5" y="670" as="targetPoint" />
          </mxGeometry>
        </mxCell>
        <mxCell id="bOBQ_j2tLt5Iy2slIHau-47" value="End" style="rounded=1;whiteSpace=wrap;html=1;fontSize=12;glass=0;strokeWidth=1;shadow=0;" parent="WIyWlLk6GJQsqaUBKTNV-1" vertex="1">
          <mxGeometry x="270" y="670" width="120" height="40" as="geometry" />
        </mxCell>
        <mxCell id="paKxTqh9RNFn9L5RTSDC-0" value="&lt;font style=&quot;font-size: 11px&quot;&gt;No&lt;/font&gt;" style="text;html=1;align=center;verticalAlign=middle;resizable=0;points=[];autosize=1;" vertex="1" parent="WIyWlLk6GJQsqaUBKTNV-1">
          <mxGeometry x="404" y="274" width="30" height="20" as="geometry" />
        </mxCell>
        <mxCell id="paKxTqh9RNFn9L5RTSDC-2" value="&lt;font style=&quot;font-size: 11px&quot;&gt;Yes&lt;/font&gt;" style="text;html=1;align=center;verticalAlign=middle;resizable=0;points=[];autosize=1;" vertex="1" parent="WIyWlLk6GJQsqaUBKTNV-1">
          <mxGeometry x="335" y="360" width="30" height="20" as="geometry" />
        </mxCell>
      </root>
    </mxGraphModel>
  </diagram>
  <diagram id="Rq1cKrfmS7rNQNzjc7w9" name="Classification Flow">
    <mxGraphModel dx="1554" dy="3252" grid="1" gridSize="10" guides="1" tooltips="1" connect="1" arrows="1" fold="1" page="1" pageScale="1" pageWidth="827" pageHeight="1169" math="0" shadow="0">
      <root>
        <mxCell id="Z_b-Uh5-bjnnVoqmZLcR-0" />
        <mxCell id="Z_b-Uh5-bjnnVoqmZLcR-1" parent="Z_b-Uh5-bjnnVoqmZLcR-0" />
        <mxCell id="Cw-cGO5fPhbXeguu0lcN-100" value="" style="rounded=0;html=1;jettySize=auto;orthogonalLoop=1;fontSize=11;endArrow=block;endFill=0;endSize=8;strokeWidth=1;shadow=0;labelBackgroundColor=none;edgeStyle=orthogonalEdgeStyle;" parent="Z_b-Uh5-bjnnVoqmZLcR-1" target="Cw-cGO5fPhbXeguu0lcN-104" edge="1">
          <mxGeometry relative="1" as="geometry">
            <mxPoint x="100" y="-2070" as="sourcePoint" />
          </mxGeometry>
        </mxCell>
        <mxCell id="Cw-cGO5fPhbXeguu0lcN-102" value="Yes" style="rounded=0;html=1;jettySize=auto;orthogonalLoop=1;fontSize=11;endArrow=block;endFill=0;endSize=8;strokeWidth=1;shadow=0;labelBackgroundColor=none;edgeStyle=orthogonalEdgeStyle;" parent="Z_b-Uh5-bjnnVoqmZLcR-1" source="Cw-cGO5fPhbXeguu0lcN-104" target="Cw-cGO5fPhbXeguu0lcN-108" edge="1">
          <mxGeometry y="20" relative="1" as="geometry">
            <mxPoint as="offset" />
          </mxGeometry>
        </mxCell>
        <mxCell id="Cw-cGO5fPhbXeguu0lcN-117" value="" style="edgeStyle=orthogonalEdgeStyle;rounded=0;orthogonalLoop=1;jettySize=auto;html=1;" parent="Z_b-Uh5-bjnnVoqmZLcR-1" source="Cw-cGO5fPhbXeguu0lcN-104" target="Cw-cGO5fPhbXeguu0lcN-116" edge="1">
          <mxGeometry relative="1" as="geometry" />
        </mxCell>
        <mxCell id="Cw-cGO5fPhbXeguu0lcN-104" value="저장 목적을 &lt;br&gt;선택했는가?" style="rhombus;whiteSpace=wrap;html=1;shadow=0;fontFamily=Helvetica;fontSize=12;align=center;strokeWidth=1;spacing=6;spacingTop=-4;" parent="Z_b-Uh5-bjnnVoqmZLcR-1" vertex="1">
          <mxGeometry x="50" y="-2020" width="100" height="80" as="geometry" />
        </mxCell>
        <mxCell id="Cw-cGO5fPhbXeguu0lcN-106" value="No" style="rounded=0;html=1;jettySize=auto;orthogonalLoop=1;fontSize=11;endArrow=block;endFill=0;endSize=8;strokeWidth=1;shadow=0;labelBackgroundColor=none;edgeStyle=orthogonalEdgeStyle;" parent="Z_b-Uh5-bjnnVoqmZLcR-1" source="Cw-cGO5fPhbXeguu0lcN-108" edge="1">
          <mxGeometry x="0.3333" y="20" relative="1" as="geometry">
            <mxPoint as="offset" />
            <mxPoint x="100" y="-1760" as="targetPoint" />
          </mxGeometry>
        </mxCell>
        <mxCell id="Cw-cGO5fPhbXeguu0lcN-107" value="Yes" style="edgeStyle=orthogonalEdgeStyle;rounded=0;html=1;jettySize=auto;orthogonalLoop=1;fontSize=11;endArrow=block;endFill=0;endSize=8;strokeWidth=1;shadow=0;labelBackgroundColor=none;" parent="Z_b-Uh5-bjnnVoqmZLcR-1" source="Cw-cGO5fPhbXeguu0lcN-108" target="Cw-cGO5fPhbXeguu0lcN-110" edge="1">
          <mxGeometry y="10" relative="1" as="geometry">
            <mxPoint as="offset" />
          </mxGeometry>
        </mxCell>
        <mxCell id="Cw-cGO5fPhbXeguu0lcN-108" value="저장을 &lt;br&gt;결정했는가?" style="rhombus;whiteSpace=wrap;html=1;shadow=0;fontFamily=Helvetica;fontSize=12;align=center;strokeWidth=1;spacing=6;spacingTop=-4;" parent="Z_b-Uh5-bjnnVoqmZLcR-1" vertex="1">
          <mxGeometry x="50" y="-1900" width="100" height="80" as="geometry" />
        </mxCell>
        <mxCell id="pCYsUA40NsX1DJZ5mqzn-14" value="" style="edgeStyle=orthogonalEdgeStyle;rounded=0;orthogonalLoop=1;jettySize=auto;html=1;" parent="Z_b-Uh5-bjnnVoqmZLcR-1" source="Cw-cGO5fPhbXeguu0lcN-110" target="pCYsUA40NsX1DJZ5mqzn-13" edge="1">
          <mxGeometry relative="1" as="geometry" />
        </mxCell>
        <mxCell id="Cw-cGO5fPhbXeguu0lcN-110" value="수동 Tagging으로 분류" style="rounded=1;whiteSpace=wrap;html=1;fontSize=12;glass=0;strokeWidth=1;shadow=0;" parent="Z_b-Uh5-bjnnVoqmZLcR-1" vertex="1">
          <mxGeometry x="200" y="-1880" width="120" height="40" as="geometry" />
        </mxCell>
        <mxCell id="Cw-cGO5fPhbXeguu0lcN-112" value="핀 클릭 트레픽 발생" style="rounded=0;whiteSpace=wrap;html=1;" parent="Z_b-Uh5-bjnnVoqmZLcR-1" vertex="1">
          <mxGeometry x="40" y="-2110" width="120" height="40" as="geometry" />
        </mxCell>
        <mxCell id="Cw-cGO5fPhbXeguu0lcN-116" value="NLP 기반 자동분류" style="rounded=1;whiteSpace=wrap;html=1;fontSize=12;glass=0;strokeWidth=1;shadow=0;" parent="Z_b-Uh5-bjnnVoqmZLcR-1" vertex="1">
          <mxGeometry x="200" y="-2000" width="120" height="40" as="geometry" />
        </mxCell>
        <mxCell id="Cw-cGO5fPhbXeguu0lcN-118" value="No" style="text;html=1;align=center;verticalAlign=middle;resizable=0;points=[];autosize=1;" parent="Z_b-Uh5-bjnnVoqmZLcR-1" vertex="1">
          <mxGeometry x="160" y="-2000" width="30" height="20" as="geometry" />
        </mxCell>
        <mxCell id="dbkdWrzbFeSHH8wD3qi5-11" value="" style="edgeStyle=orthogonalEdgeStyle;rounded=0;orthogonalLoop=1;jettySize=auto;html=1;" parent="Z_b-Uh5-bjnnVoqmZLcR-1" source="pCYsUA40NsX1DJZ5mqzn-1" edge="1">
          <mxGeometry relative="1" as="geometry">
            <mxPoint x="100" y="-1640" as="targetPoint" />
          </mxGeometry>
        </mxCell>
        <mxCell id="pCYsUA40NsX1DJZ5mqzn-1" value="저장 목적 선택권 재부여" style="rounded=0;whiteSpace=wrap;html=1;" parent="Z_b-Uh5-bjnnVoqmZLcR-1" vertex="1">
          <mxGeometry x="40" y="-1760" width="120" height="40" as="geometry" />
        </mxCell>
        <mxCell id="pCYsUA40NsX1DJZ5mqzn-2" value="" style="shape=link;html=1;" parent="Z_b-Uh5-bjnnVoqmZLcR-1" edge="1">
          <mxGeometry width="100" relative="1" as="geometry">
            <mxPoint x="320" y="-1981" as="sourcePoint" />
            <mxPoint x="370" y="-1981" as="targetPoint" />
          </mxGeometry>
        </mxCell>
        <mxCell id="pCYsUA40NsX1DJZ5mqzn-4" value="" style="shape=link;html=1;" parent="Z_b-Uh5-bjnnVoqmZLcR-1" edge="1">
          <mxGeometry width="100" relative="1" as="geometry">
            <mxPoint x="320" y="-1860.5" as="sourcePoint" />
            <mxPoint x="370" y="-1860.5" as="targetPoint" />
          </mxGeometry>
        </mxCell>
        <mxCell id="pCYsUA40NsX1DJZ5mqzn-9" value="" style="edgeStyle=orthogonalEdgeStyle;rounded=0;orthogonalLoop=1;jettySize=auto;html=1;" parent="Z_b-Uh5-bjnnVoqmZLcR-1" target="pCYsUA40NsX1DJZ5mqzn-8" edge="1">
          <mxGeometry relative="1" as="geometry">
            <mxPoint x="470" y="-1860" as="sourcePoint" />
          </mxGeometry>
        </mxCell>
        <mxCell id="pCYsUA40NsX1DJZ5mqzn-7" value="&lt;ul&gt;&lt;li&gt;Youtube Categories&lt;/li&gt;&lt;li&gt;TikTok Tag&lt;/li&gt;&lt;li&gt;Instagram HashTag&lt;/li&gt;&lt;li&gt;..etc&lt;/li&gt;&lt;/ul&gt;" style="text;strokeColor=none;fillColor=none;html=1;whiteSpace=wrap;verticalAlign=middle;overflow=hidden;" parent="Z_b-Uh5-bjnnVoqmZLcR-1" vertex="1">
          <mxGeometry x="349" y="-2034" width="130" height="100" as="geometry" />
        </mxCell>
        <mxCell id="pCYsUA40NsX1DJZ5mqzn-8" value="&lt;ul&gt;&lt;li&gt;Shopping&lt;/li&gt;&lt;li&gt;Meme&lt;/li&gt;&lt;li&gt;Music&lt;/li&gt;&lt;li&gt;Rest&lt;/li&gt;&lt;li&gt;Learning&lt;/li&gt;&lt;li&gt;..etc&lt;/li&gt;&lt;/ul&gt;" style="text;strokeColor=none;fillColor=none;html=1;whiteSpace=wrap;verticalAlign=middle;overflow=hidden;" parent="Z_b-Uh5-bjnnVoqmZLcR-1" vertex="1">
          <mxGeometry x="540" y="-1920" width="110" height="120" as="geometry" />
        </mxCell>
        <mxCell id="pCYsUA40NsX1DJZ5mqzn-12" value="" style="shape=link;html=1;exitX=0.5;exitY=1;exitDx=0;exitDy=0;" parent="Z_b-Uh5-bjnnVoqmZLcR-1" source="pCYsUA40NsX1DJZ5mqzn-7" edge="1">
          <mxGeometry width="100" relative="1" as="geometry">
            <mxPoint x="414.5" y="-1920" as="sourcePoint" />
            <mxPoint x="414.5" y="-1890" as="targetPoint" />
          </mxGeometry>
        </mxCell>
        <mxCell id="pCYsUA40NsX1DJZ5mqzn-23" value="" style="edgeStyle=orthogonalEdgeStyle;rounded=0;orthogonalLoop=1;jettySize=auto;html=1;" parent="Z_b-Uh5-bjnnVoqmZLcR-1" source="pCYsUA40NsX1DJZ5mqzn-13" target="pCYsUA40NsX1DJZ5mqzn-22" edge="1">
          <mxGeometry relative="1" as="geometry" />
        </mxCell>
        <mxCell id="pCYsUA40NsX1DJZ5mqzn-13" value="앱 내 &lt;br&gt;저장소" style="shape=cylinder;whiteSpace=wrap;html=1;boundedLbl=1;backgroundOutline=1;rounded=1;shadow=0;strokeWidth=1;glass=0;" parent="Z_b-Uh5-bjnnVoqmZLcR-1" vertex="1">
          <mxGeometry x="230" y="-1793" width="60" height="80" as="geometry" />
        </mxCell>
        <mxCell id="pCYsUA40NsX1DJZ5mqzn-21" value="Contents" style="shape=process;whiteSpace=wrap;html=1;backgroundOutline=1;" parent="Z_b-Uh5-bjnnVoqmZLcR-1" vertex="1">
          <mxGeometry x="354" y="-1890" width="120" height="60" as="geometry" />
        </mxCell>
        <mxCell id="pCYsUA40NsX1DJZ5mqzn-25" value="" style="edgeStyle=orthogonalEdgeStyle;rounded=0;orthogonalLoop=1;jettySize=auto;html=1;" parent="Z_b-Uh5-bjnnVoqmZLcR-1" edge="1">
          <mxGeometry relative="1" as="geometry">
            <mxPoint x="437" y="-1753" as="sourcePoint" />
            <mxPoint x="507" y="-1753" as="targetPoint" />
          </mxGeometry>
        </mxCell>
        <mxCell id="pCYsUA40NsX1DJZ5mqzn-22" value="Back Office" style="rhombus;whiteSpace=wrap;html=1;rounded=1;shadow=0;strokeWidth=1;glass=0;" parent="Z_b-Uh5-bjnnVoqmZLcR-1" vertex="1">
          <mxGeometry x="360" y="-1793" width="80" height="80" as="geometry" />
        </mxCell>
        <mxCell id="pCYsUA40NsX1DJZ5mqzn-27" value="" style="edgeStyle=orthogonalEdgeStyle;rounded=0;orthogonalLoop=1;jettySize=auto;html=1;" parent="Z_b-Uh5-bjnnVoqmZLcR-1" source="pCYsUA40NsX1DJZ5mqzn-24" target="pCYsUA40NsX1DJZ5mqzn-26" edge="1">
          <mxGeometry relative="1" as="geometry" />
        </mxCell>
        <mxCell id="pCYsUA40NsX1DJZ5mqzn-24" value="Developer" style="shape=umlActor;verticalLabelPosition=bottom;verticalAlign=top;html=1;outlineConnect=0;" parent="Z_b-Uh5-bjnnVoqmZLcR-1" vertex="1">
          <mxGeometry x="510" y="-1783" width="30" height="60" as="geometry" />
        </mxCell>
        <mxCell id="pCYsUA40NsX1DJZ5mqzn-26" value="&lt;br&gt;Clustering" style="whiteSpace=wrap;html=1;verticalAlign=top;" parent="Z_b-Uh5-bjnnVoqmZLcR-1" vertex="1">
          <mxGeometry x="610" y="-1783" width="120" height="60" as="geometry" />
        </mxCell>
        <mxCell id="dbkdWrzbFeSHH8wD3qi5-3" value="" style="edgeStyle=orthogonalEdgeStyle;rounded=0;orthogonalLoop=1;jettySize=auto;html=1;" parent="Z_b-Uh5-bjnnVoqmZLcR-1" source="dbkdWrzbFeSHH8wD3qi5-0" target="Cw-cGO5fPhbXeguu0lcN-112" edge="1">
          <mxGeometry relative="1" as="geometry" />
        </mxCell>
        <mxCell id="dbkdWrzbFeSHH8wD3qi5-4" value="BackGround" style="edgeLabel;html=1;align=center;verticalAlign=middle;resizable=0;points=[];" parent="dbkdWrzbFeSHH8wD3qi5-3" vertex="1" connectable="0">
          <mxGeometry x="-0.1897" y="-3" relative="1" as="geometry">
            <mxPoint y="-1" as="offset" />
          </mxGeometry>
        </mxCell>
        <mxCell id="dbkdWrzbFeSHH8wD3qi5-0" value="Start" style="rounded=1;whiteSpace=wrap;html=1;" parent="Z_b-Uh5-bjnnVoqmZLcR-1" vertex="1">
          <mxGeometry x="40" y="-2230" width="120" height="40" as="geometry" />
        </mxCell>
        <mxCell id="dbkdWrzbFeSHH8wD3qi5-1" value="" style="endArrow=classic;html=1;" parent="Z_b-Uh5-bjnnVoqmZLcR-1" edge="1">
          <mxGeometry relative="1" as="geometry">
            <mxPoint x="160" y="-2210.59" as="sourcePoint" />
            <mxPoint x="260" y="-2210.59" as="targetPoint" />
          </mxGeometry>
        </mxCell>
        <mxCell id="dbkdWrzbFeSHH8wD3qi5-2" value="In App" style="edgeLabel;resizable=0;html=1;align=center;verticalAlign=middle;" parent="dbkdWrzbFeSHH8wD3qi5-1" connectable="0" vertex="1">
          <mxGeometry relative="1" as="geometry" />
        </mxCell>
        <mxCell id="dbkdWrzbFeSHH8wD3qi5-6" value="" style="shape=link;html=1;" parent="Z_b-Uh5-bjnnVoqmZLcR-1" edge="1">
          <mxGeometry width="100" relative="1" as="geometry">
            <mxPoint x="380" y="-2210.59" as="sourcePoint" />
            <mxPoint x="430" y="-2210.59" as="targetPoint" />
          </mxGeometry>
        </mxCell>
        <mxCell id="dbkdWrzbFeSHH8wD3qi5-7" value="&lt;ul&gt;&lt;li&gt;앨범 형&lt;/li&gt;&lt;li&gt;TikTok 형&lt;/li&gt;&lt;li&gt;..etc&lt;/li&gt;&lt;/ul&gt;" style="text;strokeColor=none;fillColor=none;html=1;whiteSpace=wrap;verticalAlign=middle;overflow=hidden;" parent="Z_b-Uh5-bjnnVoqmZLcR-1" vertex="1">
          <mxGeometry x="414" y="-2260" width="130" height="100" as="geometry" />
        </mxCell>
        <mxCell id="dbkdWrzbFeSHH8wD3qi5-8" value="List Up 방식 결정" style="rounded=1;whiteSpace=wrap;html=1;fontSize=12;glass=0;strokeWidth=1;shadow=0;" parent="Z_b-Uh5-bjnnVoqmZLcR-1" vertex="1">
          <mxGeometry x="260" y="-2230" width="120" height="40" as="geometry" />
        </mxCell>
        <mxCell id="dbkdWrzbFeSHH8wD3qi5-9" value="" style="endArrow=classic;html=1;exitX=0.5;exitY=1;exitDx=0;exitDy=0;entryX=1;entryY=0.5;entryDx=0;entryDy=0;" parent="Z_b-Uh5-bjnnVoqmZLcR-1" source="dbkdWrzbFeSHH8wD3qi5-8" target="Cw-cGO5fPhbXeguu0lcN-112" edge="1">
          <mxGeometry width="50" height="50" relative="1" as="geometry">
            <mxPoint x="290" y="-2140" as="sourcePoint" />
            <mxPoint x="320" y="-2070" as="targetPoint" />
            <Array as="points">
              <mxPoint x="320" y="-2090" />
            </Array>
          </mxGeometry>
        </mxCell>
        <mxCell id="dbkdWrzbFeSHH8wD3qi5-12" value="End" style="rounded=1;whiteSpace=wrap;html=1;" parent="Z_b-Uh5-bjnnVoqmZLcR-1" vertex="1">
          <mxGeometry x="40" y="-1640" width="120" height="40" as="geometry" />
        </mxCell>
      </root>
    </mxGraphModel>
  </diagram>
  <diagram id="mekL4CQJu3gloHkmIAyD" name="Entire Structure">
    <mxGraphModel dx="2006" dy="948" grid="1" gridSize="10" guides="1" tooltips="1" connect="1" arrows="1" fold="1" page="1" pageScale="1" pageWidth="827" pageHeight="1169" math="0" shadow="0">
      <root>
        <mxCell id="BmRV6mEKZ46EOvybm7k8-0" />
        <mxCell id="BmRV6mEKZ46EOvybm7k8-1" parent="BmRV6mEKZ46EOvybm7k8-0" />
        <mxCell id="vjhKJiPjIBlado_QRK0B-0" value="" style="fillColor=#AE4132;strokeColor=none;opacity=30;" vertex="1" parent="BmRV6mEKZ46EOvybm7k8-1">
          <mxGeometry x="720" y="20" width="210" height="99.99999999999994" as="geometry" />
        </mxCell>
        <mxCell id="vjhKJiPjIBlado_QRK0B-1" value="" style="fillColor=#10739E;strokeColor=none;opacity=30;" vertex="1" parent="BmRV6mEKZ46EOvybm7k8-1">
          <mxGeometry x="70" y="169.99999999999997" width="1470" height="99.99999999999994" as="geometry" />
        </mxCell>
        <mxCell id="vjhKJiPjIBlado_QRK0B-3" value="" style="fillColor=#F2931E;strokeColor=none;opacity=30;" vertex="1" parent="BmRV6mEKZ46EOvybm7k8-1">
          <mxGeometry x="940" y="290" width="150" height="260" as="geometry" />
        </mxCell>
        <mxCell id="vjhKJiPjIBlado_QRK0B-11" value="" style="fillColor=#10739E;strokeColor=none;opacity=30;" vertex="1" parent="BmRV6mEKZ46EOvybm7k8-1">
          <mxGeometry x="200" y="290" width="150" height="530" as="geometry" />
        </mxCell>
        <mxCell id="vjhKJiPjIBlado_QRK0B-13" value="" style="fillColor=#12AAB5;strokeColor=none;opacity=30;" vertex="1" parent="BmRV6mEKZ46EOvybm7k8-1">
          <mxGeometry x="1180" y="290" width="320" height="80" as="geometry" />
        </mxCell>
        <mxCell id="vjhKJiPjIBlado_QRK0B-14" value="" style="fillColor=#12AAB5;strokeColor=none;opacity=30;" vertex="1" parent="BmRV6mEKZ46EOvybm7k8-1">
          <mxGeometry x="470" y="290" width="330" height="80" as="geometry" />
        </mxCell>
        <mxCell id="vjhKJiPjIBlado_QRK0B-15" value="" style="fillColor=#12AAB5;strokeColor=none;opacity=30;" vertex="1" parent="BmRV6mEKZ46EOvybm7k8-1">
          <mxGeometry x="20.000000000000014" y="520" width="150" height="80" as="geometry" />
        </mxCell>
        <mxCell id="vjhKJiPjIBlado_QRK0B-16" value="VOZA" style="rounded=1;fillColor=#23445D;gradientColor=none;strokeColor=none;fontColor=#FFFFFF;fontStyle=1;fontFamily=Tahoma;fontSize=14" vertex="1" parent="BmRV6mEKZ46EOvybm7k8-1">
          <mxGeometry x="730" y="29.99999999999997" width="190" height="80" as="geometry" />
        </mxCell>
        <mxCell id="vjhKJiPjIBlado_QRK0B-17" value="Management" style="rounded=1;fillColor=#23445D;gradientColor=none;strokeColor=none;fontColor=#FFFFFF;fontStyle=1;fontFamily=Tahoma;fontSize=14" vertex="1" parent="BmRV6mEKZ46EOvybm7k8-1">
          <mxGeometry x="1334.9999999999998" y="179.99999999999997" width="190" height="80" as="geometry" />
        </mxCell>
        <mxCell id="vjhKJiPjIBlado_QRK0B-18" value="" style="edgeStyle=elbowEdgeStyle;elbow=vertical;strokeWidth=2;rounded=0" edge="1" parent="BmRV6mEKZ46EOvybm7k8-1" source="vjhKJiPjIBlado_QRK0B-16" target="vjhKJiPjIBlado_QRK0B-17">
          <mxGeometry x="310" y="59.99999999999997" width="100" height="100" as="geometry">
            <mxPoint x="310" y="159.99999999999997" as="sourcePoint" />
            <mxPoint x="410" y="59.99999999999997" as="targetPoint" />
          </mxGeometry>
        </mxCell>
        <mxCell id="vjhKJiPjIBlado_QRK0B-19" value="Research and &#xa;Development" style="rounded=1;fillColor=#23445D;gradientColor=none;strokeColor=none;fontColor=#FFFFFF;fontStyle=1;fontFamily=Tahoma;fontSize=14" vertex="1" parent="BmRV6mEKZ46EOvybm7k8-1">
          <mxGeometry x="920" y="179.99999999999997" width="190" height="80" as="geometry" />
        </mxCell>
        <mxCell id="vjhKJiPjIBlado_QRK0B-20" value="Saving" style="rounded=1;fillColor=#23445D;gradientColor=none;strokeColor=none;fontColor=#FFFFFF;fontStyle=1;fontFamily=Tahoma;fontSize=14" vertex="1" parent="BmRV6mEKZ46EOvybm7k8-1">
          <mxGeometry x="534.9999999999999" y="179.99999999999997" width="190" height="80" as="geometry" />
        </mxCell>
        <mxCell id="vjhKJiPjIBlado_QRK0B-21" value="Classification" style="rounded=1;fillColor=#23445D;gradientColor=none;strokeColor=none;fontColor=#FFFFFF;fontStyle=1;fontFamily=Tahoma;fontSize=14" vertex="1" parent="BmRV6mEKZ46EOvybm7k8-1">
          <mxGeometry x="80" y="179.99999999999997" width="190" height="80" as="geometry" />
        </mxCell>
        <mxCell id="vjhKJiPjIBlado_QRK0B-22" value="Purpose" style="rounded=1;fillColor=#23445D;gradientColor=none;strokeColor=none;fontColor=#FFFFFF;fontStyle=1;fontFamily=Tahoma;fontSize=14" vertex="1" parent="BmRV6mEKZ46EOvybm7k8-1">
          <mxGeometry x="30" y="300" width="130" height="60" as="geometry" />
        </mxCell>
        <mxCell id="2MAE2avMWL4LHtE289rs-3" value="" style="edgeStyle=orthogonalEdgeStyle;rounded=0;orthogonalLoop=1;jettySize=auto;html=1;" edge="1" parent="BmRV6mEKZ46EOvybm7k8-1" source="vjhKJiPjIBlado_QRK0B-23" target="2MAE2avMWL4LHtE289rs-2">
          <mxGeometry relative="1" as="geometry" />
        </mxCell>
        <mxCell id="vjhKJiPjIBlado_QRK0B-23" value="Segmented Tags" style="rounded=1;fillColor=#23445D;gradientColor=none;strokeColor=none;fontColor=#FFFFFF;fontStyle=1;fontFamily=Tahoma;fontSize=14" vertex="1" parent="BmRV6mEKZ46EOvybm7k8-1">
          <mxGeometry x="30" y="390" width="130" height="60" as="geometry" />
        </mxCell>
        <mxCell id="vjhKJiPjIBlado_QRK0B-24" value="PlatForms" style="rounded=1;fillColor=#23445D;gradientColor=none;strokeColor=none;fontColor=#FFFFFF;fontStyle=1;fontFamily=Tahoma;fontSize=14" vertex="1" parent="BmRV6mEKZ46EOvybm7k8-1">
          <mxGeometry x="210" y="300" width="130" height="60" as="geometry" />
        </mxCell>
        <mxCell id="vjhKJiPjIBlado_QRK0B-25" value="Youtube" style="rounded=1;fillColor=#23445D;gradientColor=none;strokeColor=none;fontColor=#FFFFFF;fontStyle=1;fontFamily=Tahoma;fontSize=14" vertex="1" parent="BmRV6mEKZ46EOvybm7k8-1">
          <mxGeometry x="210" y="390" width="130" height="60" as="geometry" />
        </mxCell>
        <mxCell id="vjhKJiPjIBlado_QRK0B-26" value="TikTok" style="rounded=1;fillColor=#23445D;gradientColor=none;strokeColor=none;fontColor=#FFFFFF;fontStyle=1;fontFamily=Tahoma;fontSize=14" vertex="1" parent="BmRV6mEKZ46EOvybm7k8-1">
          <mxGeometry x="210" y="480" width="130" height="60" as="geometry" />
        </mxCell>
        <mxCell id="vjhKJiPjIBlado_QRK0B-27" value="Instagram" style="rounded=1;fillColor=#23445D;gradientColor=none;strokeColor=none;fontColor=#FFFFFF;fontStyle=1;fontFamily=Tahoma;fontSize=14" vertex="1" parent="BmRV6mEKZ46EOvybm7k8-1">
          <mxGeometry x="210" y="570" width="130" height="60" as="geometry" />
        </mxCell>
        <mxCell id="vjhKJiPjIBlado_QRK0B-28" value="Shopping Malls" style="rounded=1;fillColor=#23445D;gradientColor=none;strokeColor=none;fontColor=#FFFFFF;fontStyle=1;fontFamily=Tahoma;fontSize=14" vertex="1" parent="BmRV6mEKZ46EOvybm7k8-1">
          <mxGeometry x="210" y="660" width="130" height="60" as="geometry" />
        </mxCell>
        <mxCell id="vjhKJiPjIBlado_QRK0B-29" value="Facebook" style="rounded=1;fillColor=#23445D;gradientColor=none;strokeColor=none;fontColor=#FFFFFF;fontStyle=1;fontFamily=Tahoma;fontSize=14" vertex="1" parent="BmRV6mEKZ46EOvybm7k8-1">
          <mxGeometry x="210" y="749.9999999999999" width="130" height="60" as="geometry" />
        </mxCell>
        <mxCell id="vjhKJiPjIBlado_QRK0B-30" value="Sharing(IOS)" style="rounded=1;fillColor=#23445D;gradientColor=none;strokeColor=none;fontColor=#FFFFFF;fontStyle=1;fontFamily=Tahoma;fontSize=14" vertex="1" parent="BmRV6mEKZ46EOvybm7k8-1">
          <mxGeometry x="480" y="300" width="130" height="60" as="geometry" />
        </mxCell>
        <mxCell id="vjhKJiPjIBlado_QRK0B-31" value="URL" style="rounded=1;fillColor=#23445D;gradientColor=none;strokeColor=none;fontColor=#FFFFFF;fontStyle=1;fontFamily=Tahoma;fontSize=14" vertex="1" parent="BmRV6mEKZ46EOvybm7k8-1">
          <mxGeometry x="480" y="390" width="130" height="60" as="geometry" />
        </mxCell>
        <mxCell id="vjhKJiPjIBlado_QRK0B-32" value="Image/Video" style="rounded=1;fillColor=#23445D;gradientColor=none;strokeColor=none;fontColor=#FFFFFF;fontStyle=1;fontFamily=Tahoma;fontSize=14" vertex="1" parent="BmRV6mEKZ46EOvybm7k8-1">
          <mxGeometry x="480" y="480" width="130" height="60" as="geometry" />
        </mxCell>
        <mxCell id="vjhKJiPjIBlado_QRK0B-33" value="Tags" style="rounded=1;fillColor=#23445D;gradientColor=none;strokeColor=none;fontColor=#FFFFFF;fontStyle=1;fontFamily=Tahoma;fontSize=14" vertex="1" parent="BmRV6mEKZ46EOvybm7k8-1">
          <mxGeometry x="480" y="570" width="130" height="60" as="geometry" />
        </mxCell>
        <mxCell id="vjhKJiPjIBlado_QRK0B-34" value="PIN(Android)" style="rounded=1;fillColor=#23445D;gradientColor=none;strokeColor=none;fontColor=#FFFFFF;fontStyle=1;fontFamily=Tahoma;fontSize=14" vertex="1" parent="BmRV6mEKZ46EOvybm7k8-1">
          <mxGeometry x="655" y="300" width="130" height="60" as="geometry" />
        </mxCell>
        <mxCell id="vjhKJiPjIBlado_QRK0B-35" value="URL" style="rounded=1;fillColor=#23445D;gradientColor=none;strokeColor=none;fontColor=#FFFFFF;fontStyle=1;fontFamily=Tahoma;fontSize=14" vertex="1" parent="BmRV6mEKZ46EOvybm7k8-1">
          <mxGeometry x="655" y="390" width="130" height="60" as="geometry" />
        </mxCell>
        <mxCell id="vjhKJiPjIBlado_QRK0B-36" value="Image/Video" style="rounded=1;fillColor=#23445D;gradientColor=none;strokeColor=none;fontColor=#FFFFFF;fontStyle=1;fontFamily=Tahoma;fontSize=14" vertex="1" parent="BmRV6mEKZ46EOvybm7k8-1">
          <mxGeometry x="655" y="480" width="130" height="60" as="geometry" />
        </mxCell>
        <mxCell id="vjhKJiPjIBlado_QRK0B-37" value="Tags" style="rounded=1;fillColor=#23445D;gradientColor=none;strokeColor=none;fontColor=#FFFFFF;fontStyle=1;fontFamily=Tahoma;fontSize=14" vertex="1" parent="BmRV6mEKZ46EOvybm7k8-1">
          <mxGeometry x="655" y="570" width="130" height="60" as="geometry" />
        </mxCell>
        <mxCell id="vjhKJiPjIBlado_QRK0B-45" value="NLP" style="rounded=1;fillColor=#23445D;gradientColor=none;strokeColor=none;fontColor=#FFFFFF;fontStyle=1;fontFamily=Tahoma;fontSize=14" vertex="1" parent="BmRV6mEKZ46EOvybm7k8-1">
          <mxGeometry x="950" y="300" width="130" height="60" as="geometry" />
        </mxCell>
        <mxCell id="vjhKJiPjIBlado_QRK0B-46" value="Video &#xa;Processing" style="rounded=1;fillColor=#23445D;gradientColor=none;strokeColor=none;fontColor=#FFFFFF;fontStyle=1;fontFamily=Tahoma;fontSize=14" vertex="1" parent="BmRV6mEKZ46EOvybm7k8-1">
          <mxGeometry x="950" y="390" width="130" height="60" as="geometry" />
        </mxCell>
        <mxCell id="vjhKJiPjIBlado_QRK0B-47" value="Reinforcement&#xa;Learning Core" style="rounded=1;fillColor=#23445D;gradientColor=none;strokeColor=none;fontColor=#FFFFFF;fontStyle=1;fontFamily=Tahoma;fontSize=14" vertex="1" parent="BmRV6mEKZ46EOvybm7k8-1">
          <mxGeometry x="950" y="480" width="130" height="60" as="geometry" />
        </mxCell>
        <mxCell id="vjhKJiPjIBlado_QRK0B-48" value="Back Office" style="rounded=1;fillColor=#23445D;gradientColor=none;strokeColor=none;fontColor=#FFFFFF;fontStyle=1;fontFamily=Tahoma;fontSize=14" vertex="1" parent="BmRV6mEKZ46EOvybm7k8-1">
          <mxGeometry x="1190" y="300" width="130" height="60" as="geometry" />
        </mxCell>
        <mxCell id="vjhKJiPjIBlado_QRK0B-49" value="Programming" style="rounded=1;fillColor=#23445D;gradientColor=none;strokeColor=none;fontColor=#FFFFFF;fontStyle=1;fontFamily=Tahoma;fontSize=14" vertex="1" parent="BmRV6mEKZ46EOvybm7k8-1">
          <mxGeometry x="1190" y="390" width="130" height="60" as="geometry" />
        </mxCell>
        <mxCell id="vjhKJiPjIBlado_QRK0B-50" value="Client / Server" style="rounded=1;fillColor=#23445D;gradientColor=none;strokeColor=none;fontColor=#FFFFFF;fontStyle=1;fontFamily=Tahoma;fontSize=14" vertex="1" parent="BmRV6mEKZ46EOvybm7k8-1">
          <mxGeometry x="1190" y="480" width="130" height="60" as="geometry" />
        </mxCell>
        <mxCell id="vjhKJiPjIBlado_QRK0B-51" value="Data Collection" style="rounded=1;fillColor=#23445D;gradientColor=none;strokeColor=none;fontColor=#FFFFFF;fontStyle=1;fontFamily=Tahoma;fontSize=14" vertex="1" parent="BmRV6mEKZ46EOvybm7k8-1">
          <mxGeometry x="1190" y="570.0000000000001" width="130" height="60" as="geometry" />
        </mxCell>
        <mxCell id="vjhKJiPjIBlado_QRK0B-52" value="Front Office" style="rounded=1;fillColor=#23445D;gradientColor=none;strokeColor=none;fontColor=#FFFFFF;fontStyle=1;fontFamily=Tahoma;fontSize=14" vertex="1" parent="BmRV6mEKZ46EOvybm7k8-1">
          <mxGeometry x="1365" y="300" width="130" height="60" as="geometry" />
        </mxCell>
        <mxCell id="vjhKJiPjIBlado_QRK0B-53" value="Saving/&#xa;Classifying" style="rounded=1;fillColor=#23445D;gradientColor=none;strokeColor=none;fontColor=#FFFFFF;fontStyle=1;fontFamily=Tahoma;fontSize=14" vertex="1" parent="BmRV6mEKZ46EOvybm7k8-1">
          <mxGeometry x="1365" y="390" width="130" height="60" as="geometry" />
        </mxCell>
        <mxCell id="2MAE2avMWL4LHtE289rs-9" value="" style="edgeStyle=orthogonalEdgeStyle;rounded=0;orthogonalLoop=1;jettySize=auto;html=1;" edge="1" parent="BmRV6mEKZ46EOvybm7k8-1" source="vjhKJiPjIBlado_QRK0B-54" target="2MAE2avMWL4LHtE289rs-8">
          <mxGeometry relative="1" as="geometry" />
        </mxCell>
        <mxCell id="vjhKJiPjIBlado_QRK0B-54" value="In App Service" style="rounded=1;fillColor=#23445D;gradientColor=none;strokeColor=none;fontColor=#FFFFFF;fontStyle=1;fontFamily=Tahoma;fontSize=14" vertex="1" parent="BmRV6mEKZ46EOvybm7k8-1">
          <mxGeometry x="1365" y="480" width="130" height="60" as="geometry" />
        </mxCell>
        <mxCell id="vjhKJiPjIBlado_QRK0B-63" value="" style="edgeStyle=elbowEdgeStyle;elbow=vertical;strokeWidth=2;rounded=0" edge="1" parent="BmRV6mEKZ46EOvybm7k8-1" source="vjhKJiPjIBlado_QRK0B-16" target="vjhKJiPjIBlado_QRK0B-20">
          <mxGeometry x="320" y="69.99999999999997" width="100" height="100" as="geometry">
            <mxPoint x="834.9999999999999" y="119.99999999999997" as="sourcePoint" />
            <mxPoint x="1439.9999999999998" y="189.99999999999997" as="targetPoint" />
          </mxGeometry>
        </mxCell>
        <mxCell id="vjhKJiPjIBlado_QRK0B-64" value="" style="edgeStyle=elbowEdgeStyle;elbow=vertical;strokeWidth=2;rounded=0" edge="1" parent="BmRV6mEKZ46EOvybm7k8-1" source="vjhKJiPjIBlado_QRK0B-16" target="vjhKJiPjIBlado_QRK0B-21">
          <mxGeometry x="-50" y="-20.00000000000003" width="100" height="100" as="geometry">
            <mxPoint x="-50" y="79.99999999999997" as="sourcePoint" />
            <mxPoint x="50" y="-20.00000000000003" as="targetPoint" />
          </mxGeometry>
        </mxCell>
        <mxCell id="vjhKJiPjIBlado_QRK0B-65" value="" style="edgeStyle=elbowEdgeStyle;elbow=vertical;strokeWidth=2;rounded=0" edge="1" parent="BmRV6mEKZ46EOvybm7k8-1" source="vjhKJiPjIBlado_QRK0B-21" target="vjhKJiPjIBlado_QRK0B-22">
          <mxGeometry x="-50" y="-20.00000000000003" width="100" height="100" as="geometry">
            <mxPoint x="-50" y="79.99999999999997" as="sourcePoint" />
            <mxPoint x="50" y="-20.00000000000003" as="targetPoint" />
          </mxGeometry>
        </mxCell>
        <mxCell id="vjhKJiPjIBlado_QRK0B-66" value="" style="edgeStyle=elbowEdgeStyle;elbow=horizontal;strokeWidth=2;rounded=0" edge="1" parent="BmRV6mEKZ46EOvybm7k8-1" source="vjhKJiPjIBlado_QRK0B-21" target="vjhKJiPjIBlado_QRK0B-24">
          <mxGeometry x="-50" y="-20.00000000000003" width="100" height="100" as="geometry">
            <mxPoint x="-50" y="79.99999999999997" as="sourcePoint" />
            <mxPoint x="50" y="-20.00000000000003" as="targetPoint" />
            <Array as="points">
              <mxPoint x="175" y="280" />
            </Array>
          </mxGeometry>
        </mxCell>
        <mxCell id="vjhKJiPjIBlado_QRK0B-67" value="" style="edgeStyle=elbowEdgeStyle;elbow=horizontal;strokeWidth=2;rounded=0" edge="1" parent="BmRV6mEKZ46EOvybm7k8-1" source="vjhKJiPjIBlado_QRK0B-21" target="vjhKJiPjIBlado_QRK0B-25">
          <mxGeometry x="-50" y="-20.00000000000003" width="100" height="100" as="geometry">
            <mxPoint x="-50" y="79.99999999999997" as="sourcePoint" />
            <mxPoint x="50" y="-20.00000000000003" as="targetPoint" />
            <Array as="points">
              <mxPoint x="175" y="320" />
            </Array>
          </mxGeometry>
        </mxCell>
        <mxCell id="vjhKJiPjIBlado_QRK0B-68" value="" style="edgeStyle=elbowEdgeStyle;elbow=horizontal;strokeWidth=2;rounded=0" edge="1" parent="BmRV6mEKZ46EOvybm7k8-1" source="vjhKJiPjIBlado_QRK0B-21" target="vjhKJiPjIBlado_QRK0B-26">
          <mxGeometry x="-50" y="-20.00000000000003" width="100" height="100" as="geometry">
            <mxPoint x="-50" y="79.99999999999997" as="sourcePoint" />
            <mxPoint x="50" y="-20.00000000000003" as="targetPoint" />
            <Array as="points">
              <mxPoint x="175" y="370" />
            </Array>
          </mxGeometry>
        </mxCell>
        <mxCell id="vjhKJiPjIBlado_QRK0B-69" value="" style="edgeStyle=elbowEdgeStyle;elbow=horizontal;strokeWidth=2;rounded=0" edge="1" parent="BmRV6mEKZ46EOvybm7k8-1" source="vjhKJiPjIBlado_QRK0B-21" target="vjhKJiPjIBlado_QRK0B-27">
          <mxGeometry x="-50" y="-20.00000000000003" width="100" height="100" as="geometry">
            <mxPoint x="-50" y="79.99999999999997" as="sourcePoint" />
            <mxPoint x="50" y="-20.00000000000003" as="targetPoint" />
            <Array as="points">
              <mxPoint x="175" y="420" />
            </Array>
          </mxGeometry>
        </mxCell>
        <mxCell id="vjhKJiPjIBlado_QRK0B-70" value="" style="edgeStyle=elbowEdgeStyle;elbow=horizontal;strokeWidth=2;rounded=0" edge="1" parent="BmRV6mEKZ46EOvybm7k8-1" source="vjhKJiPjIBlado_QRK0B-21" target="vjhKJiPjIBlado_QRK0B-28">
          <mxGeometry x="-50" y="-20.00000000000003" width="100" height="100" as="geometry">
            <mxPoint x="-50" y="79.99999999999997" as="sourcePoint" />
            <mxPoint x="50" y="-20.00000000000003" as="targetPoint" />
            <Array as="points">
              <mxPoint x="175" y="460" />
            </Array>
          </mxGeometry>
        </mxCell>
        <mxCell id="vjhKJiPjIBlado_QRK0B-71" value="" style="edgeStyle=elbowEdgeStyle;elbow=horizontal;strokeWidth=2;rounded=0" edge="1" parent="BmRV6mEKZ46EOvybm7k8-1" source="vjhKJiPjIBlado_QRK0B-21" target="vjhKJiPjIBlado_QRK0B-29">
          <mxGeometry x="-50" y="-20.00000000000003" width="100" height="100" as="geometry">
            <mxPoint x="-50" y="79.99999999999997" as="sourcePoint" />
            <mxPoint x="50" y="-20.00000000000003" as="targetPoint" />
            <Array as="points">
              <mxPoint x="175" y="510" />
            </Array>
          </mxGeometry>
        </mxCell>
        <mxCell id="vjhKJiPjIBlado_QRK0B-72" value="" style="edgeStyle=elbowEdgeStyle;elbow=horizontal;strokeWidth=2;rounded=0" edge="1" parent="BmRV6mEKZ46EOvybm7k8-1" source="vjhKJiPjIBlado_QRK0B-30" target="vjhKJiPjIBlado_QRK0B-31">
          <mxGeometry x="40" y="-20.00000000000003" width="100" height="100" as="geometry">
            <mxPoint x="40" y="79.99999999999997" as="sourcePoint" />
            <mxPoint x="140" y="-20.00000000000003" as="targetPoint" />
            <Array as="points">
              <mxPoint x="460" y="380" />
            </Array>
          </mxGeometry>
        </mxCell>
        <mxCell id="vjhKJiPjIBlado_QRK0B-73" value="" style="edgeStyle=elbowEdgeStyle;elbow=horizontal;strokeWidth=2;rounded=0" edge="1" parent="BmRV6mEKZ46EOvybm7k8-1" source="vjhKJiPjIBlado_QRK0B-30" target="vjhKJiPjIBlado_QRK0B-32">
          <mxGeometry x="40" y="-20.00000000000003" width="100" height="100" as="geometry">
            <mxPoint x="40" y="79.99999999999997" as="sourcePoint" />
            <mxPoint x="140" y="-20.00000000000003" as="targetPoint" />
            <Array as="points">
              <mxPoint x="460" y="420" />
            </Array>
          </mxGeometry>
        </mxCell>
        <mxCell id="vjhKJiPjIBlado_QRK0B-74" value="" style="edgeStyle=elbowEdgeStyle;elbow=horizontal;strokeWidth=2;rounded=0" edge="1" parent="BmRV6mEKZ46EOvybm7k8-1" source="vjhKJiPjIBlado_QRK0B-30" target="vjhKJiPjIBlado_QRK0B-33">
          <mxGeometry x="40" y="-20.00000000000003" width="100" height="100" as="geometry">
            <mxPoint x="40" y="79.99999999999997" as="sourcePoint" />
            <mxPoint x="140" y="-20.00000000000003" as="targetPoint" />
            <Array as="points">
              <mxPoint x="460" y="460" />
            </Array>
          </mxGeometry>
        </mxCell>
        <mxCell id="vjhKJiPjIBlado_QRK0B-75" value="" style="edgeStyle=elbowEdgeStyle;elbow=horizontal;strokeWidth=2;rounded=0" edge="1" parent="BmRV6mEKZ46EOvybm7k8-1" source="vjhKJiPjIBlado_QRK0B-34" target="vjhKJiPjIBlado_QRK0B-35">
          <mxGeometry x="40" y="-20.00000000000003" width="100" height="100" as="geometry">
            <mxPoint x="40" y="79.99999999999997" as="sourcePoint" />
            <mxPoint x="140" y="-20.00000000000003" as="targetPoint" />
            <Array as="points">
              <mxPoint x="630" y="380" />
            </Array>
          </mxGeometry>
        </mxCell>
        <mxCell id="vjhKJiPjIBlado_QRK0B-76" value="" style="edgeStyle=elbowEdgeStyle;elbow=horizontal;strokeWidth=2;rounded=0" edge="1" parent="BmRV6mEKZ46EOvybm7k8-1" source="vjhKJiPjIBlado_QRK0B-34" target="vjhKJiPjIBlado_QRK0B-36">
          <mxGeometry x="40" y="-20.00000000000003" width="100" height="100" as="geometry">
            <mxPoint x="40" y="79.99999999999997" as="sourcePoint" />
            <mxPoint x="140" y="-20.00000000000003" as="targetPoint" />
            <Array as="points">
              <mxPoint x="630" y="420" />
            </Array>
          </mxGeometry>
        </mxCell>
        <mxCell id="vjhKJiPjIBlado_QRK0B-77" value="" style="edgeStyle=elbowEdgeStyle;elbow=horizontal;strokeWidth=2;rounded=0" edge="1" parent="BmRV6mEKZ46EOvybm7k8-1" source="vjhKJiPjIBlado_QRK0B-34" target="vjhKJiPjIBlado_QRK0B-37">
          <mxGeometry x="40" y="-20.00000000000003" width="100" height="100" as="geometry">
            <mxPoint x="40" y="79.99999999999997" as="sourcePoint" />
            <mxPoint x="140" y="-20.00000000000003" as="targetPoint" />
            <Array as="points">
              <mxPoint x="630" y="460" />
            </Array>
          </mxGeometry>
        </mxCell>
        <mxCell id="vjhKJiPjIBlado_QRK0B-84" value="" style="edgeStyle=elbowEdgeStyle;elbow=horizontal;strokeWidth=2;rounded=0" edge="1" parent="BmRV6mEKZ46EOvybm7k8-1" source="vjhKJiPjIBlado_QRK0B-45" target="vjhKJiPjIBlado_QRK0B-46">
          <mxGeometry x="-50" y="-20.00000000000003" width="100" height="100" as="geometry">
            <mxPoint x="-50" y="79.99999999999997" as="sourcePoint" />
            <mxPoint x="50" y="-20.00000000000003" as="targetPoint" />
            <Array as="points">
              <mxPoint x="930" y="380" />
            </Array>
          </mxGeometry>
        </mxCell>
        <mxCell id="vjhKJiPjIBlado_QRK0B-85" value="" style="edgeStyle=elbowEdgeStyle;elbow=horizontal;strokeWidth=2;rounded=0" edge="1" parent="BmRV6mEKZ46EOvybm7k8-1" source="vjhKJiPjIBlado_QRK0B-45" target="vjhKJiPjIBlado_QRK0B-47">
          <mxGeometry x="-50" y="-20.00000000000003" width="100" height="100" as="geometry">
            <mxPoint x="-50" y="79.99999999999997" as="sourcePoint" />
            <mxPoint x="50" y="-20.00000000000003" as="targetPoint" />
            <Array as="points">
              <mxPoint x="930" y="430" />
            </Array>
          </mxGeometry>
        </mxCell>
        <mxCell id="vjhKJiPjIBlado_QRK0B-86" value="" style="edgeStyle=elbowEdgeStyle;elbow=horizontal;strokeWidth=2;rounded=0" edge="1" parent="BmRV6mEKZ46EOvybm7k8-1" source="vjhKJiPjIBlado_QRK0B-48" target="vjhKJiPjIBlado_QRK0B-49">
          <mxGeometry x="-50" y="-20.00000000000003" width="100" height="100" as="geometry">
            <mxPoint x="-50" y="79.99999999999997" as="sourcePoint" />
            <mxPoint x="50" y="-20.00000000000003" as="targetPoint" />
            <Array as="points">
              <mxPoint x="1170" y="420" />
              <mxPoint x="1170" y="390" />
            </Array>
          </mxGeometry>
        </mxCell>
        <mxCell id="vjhKJiPjIBlado_QRK0B-87" value="" style="edgeStyle=elbowEdgeStyle;elbow=horizontal;strokeWidth=2;rounded=0" edge="1" parent="BmRV6mEKZ46EOvybm7k8-1" source="vjhKJiPjIBlado_QRK0B-48" target="vjhKJiPjIBlado_QRK0B-50">
          <mxGeometry x="-50" y="-20.00000000000003" width="100" height="100" as="geometry">
            <mxPoint x="-50" y="79.99999999999997" as="sourcePoint" />
            <mxPoint x="50" y="-20.00000000000003" as="targetPoint" />
            <Array as="points">
              <mxPoint x="1170" y="420" />
            </Array>
          </mxGeometry>
        </mxCell>
        <mxCell id="vjhKJiPjIBlado_QRK0B-88" value="" style="edgeStyle=elbowEdgeStyle;elbow=horizontal;strokeWidth=2;rounded=0" edge="1" parent="BmRV6mEKZ46EOvybm7k8-1" source="vjhKJiPjIBlado_QRK0B-48" target="vjhKJiPjIBlado_QRK0B-51">
          <mxGeometry x="-50" y="-20.00000000000003" width="100" height="100" as="geometry">
            <mxPoint x="-50" y="79.99999999999997" as="sourcePoint" />
            <mxPoint x="50" y="-20.00000000000003" as="targetPoint" />
            <Array as="points">
              <mxPoint x="1170" y="410" />
              <mxPoint x="1170" y="470" />
            </Array>
          </mxGeometry>
        </mxCell>
        <mxCell id="vjhKJiPjIBlado_QRK0B-89" value="" style="edgeStyle=elbowEdgeStyle;elbow=horizontal;strokeWidth=2;rounded=0" edge="1" parent="BmRV6mEKZ46EOvybm7k8-1" source="vjhKJiPjIBlado_QRK0B-52" target="vjhKJiPjIBlado_QRK0B-53">
          <mxGeometry x="-50" y="-20.00000000000003" width="100" height="100" as="geometry">
            <mxPoint x="-50" y="79.99999999999997" as="sourcePoint" />
            <mxPoint x="50" y="-20.00000000000003" as="targetPoint" />
            <Array as="points">
              <mxPoint x="1340" y="380" />
            </Array>
          </mxGeometry>
        </mxCell>
        <mxCell id="vjhKJiPjIBlado_QRK0B-90" value="" style="edgeStyle=elbowEdgeStyle;elbow=horizontal;strokeWidth=2;rounded=0" edge="1" parent="BmRV6mEKZ46EOvybm7k8-1" source="vjhKJiPjIBlado_QRK0B-52" target="vjhKJiPjIBlado_QRK0B-54">
          <mxGeometry x="-50" y="-20.00000000000003" width="100" height="100" as="geometry">
            <mxPoint x="-50" y="79.99999999999997" as="sourcePoint" />
            <mxPoint x="50" y="-20.00000000000003" as="targetPoint" />
            <Array as="points">
              <mxPoint x="1340" y="440" />
            </Array>
          </mxGeometry>
        </mxCell>
        <mxCell id="vjhKJiPjIBlado_QRK0B-98" value="" style="edgeStyle=elbowEdgeStyle;elbow=vertical;strokeWidth=2;rounded=0;exitX=0.5;exitY=1;exitDx=0;exitDy=0;" edge="1" parent="BmRV6mEKZ46EOvybm7k8-1" source="vjhKJiPjIBlado_QRK0B-20" target="vjhKJiPjIBlado_QRK0B-30">
          <mxGeometry x="40" y="-20.00000000000003" width="100" height="100" as="geometry">
            <mxPoint x="690" y="260" as="sourcePoint" />
            <mxPoint x="140" y="-20.00000000000003" as="targetPoint" />
          </mxGeometry>
        </mxCell>
        <mxCell id="vjhKJiPjIBlado_QRK0B-99" value="" style="edgeStyle=elbowEdgeStyle;elbow=vertical;strokeWidth=2;rounded=0;exitX=0.5;exitY=1;exitDx=0;exitDy=0;" edge="1" parent="BmRV6mEKZ46EOvybm7k8-1" source="vjhKJiPjIBlado_QRK0B-20" target="vjhKJiPjIBlado_QRK0B-34">
          <mxGeometry x="40" y="-20.00000000000003" width="100" height="100" as="geometry">
            <mxPoint x="690" y="260" as="sourcePoint" />
            <mxPoint x="140" y="-20.00000000000003" as="targetPoint" />
          </mxGeometry>
        </mxCell>
        <mxCell id="vjhKJiPjIBlado_QRK0B-101" value="" style="edgeStyle=elbowEdgeStyle;elbow=vertical;strokeWidth=2;rounded=0" edge="1" parent="BmRV6mEKZ46EOvybm7k8-1" source="vjhKJiPjIBlado_QRK0B-19" target="vjhKJiPjIBlado_QRK0B-45">
          <mxGeometry x="-50" y="-20.00000000000003" width="100" height="100" as="geometry">
            <mxPoint x="-50" y="79.99999999999997" as="sourcePoint" />
            <mxPoint x="50" y="-20.00000000000003" as="targetPoint" />
          </mxGeometry>
        </mxCell>
        <mxCell id="vjhKJiPjIBlado_QRK0B-102" value="" style="edgeStyle=elbowEdgeStyle;elbow=vertical;strokeWidth=2;rounded=0" edge="1" parent="BmRV6mEKZ46EOvybm7k8-1" source="vjhKJiPjIBlado_QRK0B-17" target="vjhKJiPjIBlado_QRK0B-52">
          <mxGeometry x="-50" y="-20.00000000000003" width="100" height="100" as="geometry">
            <mxPoint x="-50" y="79.99999999999997" as="sourcePoint" />
            <mxPoint x="50" y="-20.00000000000003" as="targetPoint" />
          </mxGeometry>
        </mxCell>
        <mxCell id="vjhKJiPjIBlado_QRK0B-103" value="" style="edgeStyle=elbowEdgeStyle;elbow=vertical;strokeWidth=2;rounded=0" edge="1" parent="BmRV6mEKZ46EOvybm7k8-1" source="vjhKJiPjIBlado_QRK0B-17" target="vjhKJiPjIBlado_QRK0B-48">
          <mxGeometry x="-50" y="-20.00000000000003" width="100" height="100" as="geometry">
            <mxPoint x="-50" y="79.99999999999997" as="sourcePoint" />
            <mxPoint x="50" y="-20.00000000000003" as="targetPoint" />
          </mxGeometry>
        </mxCell>
        <mxCell id="vjhKJiPjIBlado_QRK0B-105" value="" style="edgeStyle=elbowEdgeStyle;elbow=vertical;rounded=0;strokeWidth=2" edge="1" parent="BmRV6mEKZ46EOvybm7k8-1" source="vjhKJiPjIBlado_QRK0B-22" target="vjhKJiPjIBlado_QRK0B-23">
          <mxGeometry x="-50" y="-20.00000000000003" width="100" height="100" as="geometry">
            <mxPoint x="-50" y="79.99999999999997" as="sourcePoint" />
            <mxPoint x="50" y="-20.00000000000003" as="targetPoint" />
          </mxGeometry>
        </mxCell>
        <mxCell id="2MAE2avMWL4LHtE289rs-2" value="Free Tags" style="rounded=1;fillColor=#23445D;gradientColor=none;strokeColor=none;fontColor=#FFFFFF;fontStyle=1;fontFamily=Tahoma;fontSize=14" vertex="1" parent="BmRV6mEKZ46EOvybm7k8-1">
          <mxGeometry x="30" y="530" width="130" height="60" as="geometry" />
        </mxCell>
        <mxCell id="2MAE2avMWL4LHtE289rs-6" value="" style="edgeStyle=elbowEdgeStyle;elbow=horizontal;strokeWidth=2;rounded=0;entryX=0;entryY=0.5;entryDx=0;entryDy=0;" edge="1" parent="BmRV6mEKZ46EOvybm7k8-1" target="2MAE2avMWL4LHtE289rs-7">
          <mxGeometry x="-50" y="-20.00000000000003" width="100" height="100" as="geometry">
            <mxPoint x="1190" y="330" as="sourcePoint" />
            <mxPoint x="1190" y="680" as="targetPoint" />
            <Array as="points">
              <mxPoint x="1170" y="410" />
              <mxPoint x="1170" y="470" />
            </Array>
          </mxGeometry>
        </mxCell>
        <mxCell id="2MAE2avMWL4LHtE289rs-7" value="Alert/Terms" style="rounded=1;fillColor=#23445D;gradientColor=none;strokeColor=none;fontColor=#FFFFFF;fontStyle=1;fontFamily=Tahoma;fontSize=14" vertex="1" parent="BmRV6mEKZ46EOvybm7k8-1">
          <mxGeometry x="1190" y="660.0000000000001" width="130" height="60" as="geometry" />
        </mxCell>
        <mxCell id="2MAE2avMWL4LHtE289rs-8" value="List&lt;br&gt;Up Method" style="whiteSpace=wrap;html=1;rounded=1;fontFamily=Tahoma;fontSize=14;fontColor=#FFFFFF;fontStyle=1;strokeColor=none;fillColor=#23445D;" vertex="1" parent="BmRV6mEKZ46EOvybm7k8-1">
          <mxGeometry x="1370" y="620" width="120" height="60" as="geometry" />
        </mxCell>
        <mxCell id="2MAE2avMWL4LHtE289rs-10" value="" style="edgeStyle=elbowEdgeStyle;elbow=horizontal;strokeWidth=2;rounded=0" edge="1" parent="BmRV6mEKZ46EOvybm7k8-1">
          <mxGeometry x="-45" y="300" width="100" height="100" as="geometry">
            <mxPoint x="1370" y="650" as="sourcePoint" />
            <mxPoint x="1370" y="830" as="targetPoint" />
            <Array as="points">
              <mxPoint x="1345" y="760" />
            </Array>
          </mxGeometry>
        </mxCell>
        <mxCell id="2MAE2avMWL4LHtE289rs-11" value="" style="edgeStyle=elbowEdgeStyle;elbow=horizontal;strokeWidth=2;rounded=0" edge="1" parent="BmRV6mEKZ46EOvybm7k8-1">
          <mxGeometry x="-45" y="300" width="100" height="100" as="geometry">
            <mxPoint x="1370" y="650" as="sourcePoint" />
            <mxPoint x="1370" y="740" as="targetPoint" />
            <Array as="points">
              <mxPoint x="1345" y="700" />
            </Array>
          </mxGeometry>
        </mxCell>
        <mxCell id="2MAE2avMWL4LHtE289rs-12" value="UI Color" style="rounded=1;fillColor=#23445D;gradientColor=none;strokeColor=none;fontColor=#FFFFFF;fontStyle=1;fontFamily=Tahoma;fontSize=14" vertex="1" parent="BmRV6mEKZ46EOvybm7k8-1">
          <mxGeometry x="1370" y="710" width="130" height="60" as="geometry" />
        </mxCell>
        <mxCell id="2MAE2avMWL4LHtE289rs-13" value="Preferences" style="rounded=1;fillColor=#23445D;gradientColor=none;strokeColor=none;fontColor=#FFFFFF;fontStyle=1;fontFamily=Tahoma;fontSize=14" vertex="1" parent="BmRV6mEKZ46EOvybm7k8-1">
          <mxGeometry x="1370" y="800" width="130" height="60" as="geometry" />
        </mxCell>
        <mxCell id="2MAE2avMWL4LHtE289rs-14" value="" style="fillColor=#F2931E;strokeColor=none;opacity=30;" vertex="1" parent="BmRV6mEKZ46EOvybm7k8-1">
          <mxGeometry x="1355" y="470" width="150" height="400" as="geometry" />
        </mxCell>
      </root>
    </mxGraphModel>
  </diagram>
</mxfile>
